<svg xmlns="http://www.w3.org/2000/svg" xmlns:xlink="http://www.w3.org/1999/xlink" version="1.1" style="" xml:space="preserve" width="512" height="512"><rect id="backgroundrect" width="100%" height="100%" x="0" y="0" fill="none" stroke="none"/>






































<g class="currentLayer" style=""><title>Layer 1</title><circle style="" cx="256" cy="256" r="256" id="svg_1" class="" fill="#e84141" fill-opacity="1"/><path style="fill:#15BDB2;" d="M452.751,419.772c-222.713-0.661-398-7.704-398-16.295c0-8.887,187.545-16.115,421.13-16.336  c-6.869,11.492-14.609,22.401-23.136,32.631H452.751z" id="svg_2" class=""/><circle style="" cx="292.0299987792969" cy="118.11900329589844" r="38.50199890136719" id="svg_3" class="" fill="#0bd5d5" fill-opacity="1"/><path style="" d="M336.172,145.371h-97.793c-1.353,0-2.517,0.471-3.487,1.408l-82.672,79.678L51.134,263.053  c-2.028,0.73-3.317,2.568-3.317,4.725v104.227c0,2.767,2.259,5.025,5.025,5.025h283.33V145.366V145.371z" id="svg_4" class="" fill="#ffffff" fill-opacity="1" stroke="none"/><path style="fill:#C2C2C4;" d="M47.819,367.091h288.359v9.949H52.848c-2.767,0-5.025-2.259-5.025-5.025v-4.919L47.819,367.091z" id="svg_5"/><path style="fill:#FFFFFF;" d="M357.447,73.439h77.988c47.246,46.446,76.56,111.077,76.56,182.561  c0,43.781-11.001,84.995-30.373,121.035H334.039V96.847C334.039,83.969,344.574,73.439,357.447,73.439z" id="svg_6" class=""/><path style="fill:#666666;" d="M149.352,328.159c26.743,0,48.427,21.681,48.427,48.427c0,26.743-21.681,48.427-48.427,48.427  s-48.427-21.686-48.427-48.427C100.925,349.84,122.606,328.159,149.352,328.159z" id="svg_7"/><path style="fill:#C2C2C4;" d="M481.622,377.035H334.039v-9.945h152.664C485.082,370.448,483.382,373.76,481.622,377.035z" id="svg_8"/><path style="fill:#DCE3DB;" d="M149.352,347.286c16.184,0,29.306,13.117,29.306,29.302c0,16.184-13.122,29.302-29.306,29.302  s-29.302-13.117-29.302-29.302C120.052,360.403,133.168,347.286,149.352,347.286z" id="svg_9"/><path style="fill:#FFFFFF;" d="M149.352,354.883c11.981,0,21.699,9.718,21.699,21.704c0,11.981-9.718,21.699-21.699,21.699  c-11.986,0-21.699-9.718-21.699-21.699C127.654,364.601,137.367,354.883,149.352,354.883z" id="svg_10"/><g id="svg_11" class="" fill="#eb1a1a" fill-opacity="1">
	<path style="" d="M364.541,95.392h24.927c1.52,0,2.758,1.243,2.758,2.758v16.84c0,1.52-1.238,2.758-2.758,2.758   h-24.927c-1.515,0-2.758-1.243-2.758-2.758v-16.84C361.783,96.634,363.026,95.392,364.541,95.392z" id="svg_12" fill="#eb1a1a" fill-opacity="1"/>
	<path style="" d="M409.168,95.392h24.927c1.52,0,2.758,1.243,2.758,2.758v16.84c0,1.52-1.238,2.758-2.758,2.758   h-24.927c-1.52,0-2.762-1.243-2.762-2.758v-16.84C406.405,96.634,407.648,95.392,409.168,95.392z" id="svg_13" fill="#eb1a1a" fill-opacity="1"/>
</g><path style="fill:#C2C2C4;" d="M304.206,159.513h-60.404c-1.201,0-2.24,0.429-3.085,1.285l-70.852,71.457  c-1.261,1.275-1.612,3.076-0.924,4.73c0.693,1.654,2.222,2.674,4.014,2.674h131.257c2.392,0,4.346-1.954,4.346-4.347v-71.457  c0-2.392-1.954-4.347-4.346-4.347L304.206,159.513z" id="svg_14" class=""/><g id="svg_15">
	<path style="fill:#D9DADA;" d="M226.897,239.664h6.628l75.027-73.614v-2.19c0-1.197-0.485-2.282-1.271-3.067L226.897,239.664z" id="svg_16"/>
	<path style="fill:#D9DADA;" d="M292.391,159.513h-15.916l-81.687,80.149h15.916L292.391,159.513z" id="svg_17"/>
</g><path style="fill:#FAD24D;" d="M271.404,133.843h42.525v11.533h-42.525V133.843z" id="svg_18"/><path style="" d="M291.085,98.167h3.159c8.425,0,15.32,7.335,15.32,16.299v16.304h-33.8v-16.304  C275.763,105.502,282.66,98.167,291.085,98.167z" id="svg_19" class="" fill="#eb1a1a" fill-opacity="1"/><path style="fill:#C2C2C4;" d="M331.143,145.371h5.03v231.664h-5.03V145.371z" id="svg_20"/><g id="svg_21" class="" fill="#eb1a1a" fill-opacity="1">
	<path style="" d="M336.172,286.553h174.003c-0.822,6.896-1.903,13.713-3.261,20.429H336.172V286.553z" id="svg_22" fill="#eb1a1a" fill-opacity="1"/>
	<path style="" d="M47.684,286.553h283.459v20.429H47.684V286.553z" id="svg_23" fill="#eb1a1a" fill-opacity="1"/>
</g><circle style="fill:#FF878E;" cx="286.0509948730469" cy="108.927001953125" r="6.189000129699707" id="svg_24"/><circle style="" cx="411.70599365234375" cy="195.80799865722656" r="44.292999267578125" id="svg_25" class="" fill="#eb1a1a" fill-opacity="1"/><path style="fill:#FF878E;" d="M304.137,107.312L304.137,107.312c0.346,0,0.628,0.281,0.628,0.628v20.867h-1.252V107.94  c0-0.346,0.281-0.628,0.628-0.628H304.137z" id="svg_26"/><path style="fill:#FFFFFF;" d="M403.274,164.756h16.863v22.618h22.618v16.863h-22.618v22.618h-16.863v-22.618h-22.618v-16.863  h22.618L403.274,164.756L403.274,164.756z" id="svg_27" class=""/><rect x="273.6260070800781" y="130.77499389648438" style="fill:#666666;" width="38.08599853515625" height="3.071000099182129" id="svg_28"/><path style="" d="M55.254,347.105h11.279c1.058,0,1.926,1.025,1.926,2.273v10.272c0,1.252-0.868,2.273-1.926,2.273  H55.254c-1.058,0-1.926-1.025-1.926-2.273v-10.272C53.328,348.126,54.197,347.105,55.254,347.105z" id="svg_29" class="" fill="#eb1a1a" fill-opacity="1"/><g id="svg_30">
</g><g id="svg_31">
</g><g id="svg_32">
</g><g id="svg_33">
</g><g id="svg_34">
</g><g id="svg_35">
</g><g id="svg_36">
</g><g id="svg_37">
</g><g id="svg_38">
</g><g id="svg_39">
</g><g id="svg_40">
</g><g id="svg_41">
</g><g id="svg_42">
</g><g id="svg_43">
</g><g id="svg_44">
</g></g></svg>