<svg id="Capa_1" enable-background="new 0 0 497 497" height="512" viewBox="0 0 497 497" width="512" xmlns="http://www.w3.org/2000/svg"><g><path d="m331 75-45 37.5 45 37.5h22.5c4.142 0 7.5-3.358 7.5-7.5v-60c0-4.142-3.358-7.5-7.5-7.5z" fill="#ea1726"/><path d="m286 75v-67.5c0-4.142-3.358-7.5-7.5-7.5h-60c-4.142 0-7.5 3.358-7.5 7.5v67.5h-67.5c-4.142 0-7.5 3.358-7.5 7.5v60c0 4.142 3.358 7.5 7.5 7.5h67.5v67.5c0 4.142 3.358 7.5 7.5 7.5h60c4.142 0 7.5-3.358 7.5-7.5v-67.5h45v-75z" fill="#ff4547"/><path d="m67.5 497h181l90-128.5-90-113.5-188.5 45v189.5c0 4.142 3.358 7.5 7.5 7.5z" fill="#ffbea4"/><path d="m57.748 257.815-48 60c-3.928 4.911-.432 12.185 5.857 12.185h172.895l60-75h-184.895c-2.279 0-4.434 1.036-5.857 2.815z" fill="#ffd4c4"/><path d="m429.5 497h-22.5l-98.5-197h128.5v189.5c0 4.142-3.358 7.5-7.5 7.5z" fill="#fe7665"/><path d="m407 497h-158.5v-242l158.5 45z" fill="#ffa785"/><path d="m218.5 390-60 30 30-60h30z" fill="#ea1726"/><path d="m188.5 420-98.5-30v-30h98.5z" fill="#ff4547"/><path d="m218.5 467h-30l-45-38.5 45-38.5h30z" fill="#dbfffc"/><path d="m90 390h98.5v77h-98.5z" fill="#fff"/><path d="m433.395 255h-34.814l-20.781 37.5 80.781 37.5h22.814c6.289 0 9.785-7.274 5.857-12.185l-48-60c-1.423-1.779-3.578-2.815-5.857-2.815z" fill="#ffbea4"/><path d="m248.5 255 60 75h150.081l-60-75z" fill="#ffd4c4"/></g></svg>